<svg width="63" height="63" viewBox="0 0 63 63" fill="none" xmlns="http://www.w3.org/2000/svg">
<path d="M45.8616 24.1736C45.137 26.7663 43.8228 29.5925 41.4707 31.9457C40.9058 32.5112 40.2796 33.0521 39.6102 33.5557C37.3259 35.2948 34.5866 36.6461 32.2039 37.4451C31.4859 37.6907 30.7979 37.8815 30.1712 38.0166C30.1531 37.9242 30.1285 37.8443 30.1039 37.7585C30.0366 37.4943 29.9562 37.2362 29.8584 36.9907C29.527 36.1179 29.0233 35.3254 28.3473 34.6495C27.4756 33.7767 26.407 33.1932 25.24 32.8918C25.1541 32.8678 25.0743 32.8432 24.9824 32.8246C25.1175 32.1979 25.3078 31.5099 25.5534 30.7907C26.3518 28.4069 27.7026 25.6665 29.4405 23.3806C29.9442 22.7112 30.4845 22.0845 31.0495 21.519C33.4016 19.1658 36.2267 17.8511 38.8178 17.126C41.2131 16.45 43.4176 16.2718 44.8788 16.2537C46.0027 16.2351 46.6846 16.3029 46.6846 16.3029C46.6846 16.3029 47.0592 19.9342 45.8616 24.1736Z" fill="#D8D4D3"/>
<path d="M44.0191 23.5591C43.2945 26.1518 41.9804 28.9786 39.6288 31.3318C39.0639 31.8973 38.4372 32.4376 37.7678 32.9418C35.4835 34.6803 32.7442 36.0322 30.3615 36.8312C30.1898 36.8864 30.0241 36.9416 29.8584 36.9909C29.527 36.118 29.0233 35.3256 28.3473 34.6497C27.4756 33.7769 26.407 33.1934 25.24 32.892C25.1541 32.868 25.0743 32.8434 24.9824 32.8248C25.1175 32.198 25.3078 31.5101 25.5534 30.7909C26.3518 28.4071 27.7026 25.6667 29.4405 23.3808C29.9442 22.7114 30.4845 22.0847 31.0495 21.5192C33.4016 19.166 36.2267 17.8513 38.8178 17.1262C41.2131 16.4502 43.4176 16.272 44.8788 16.2539C44.9341 17.4275 44.9341 20.315 44.0191 23.5591Z" fill="#E4E4E3"/>
<path d="M28.3351 31.4652L27.1943 31.0091C27.3606 30.5924 27.5411 30.1697 27.7357 29.7437L28.8519 30.255C28.666 30.6613 28.4943 31.0665 28.3351 31.4652Z" fill="#F5F6F5"/>
<path d="M29.3701 29.1813L28.2764 28.6235C28.9977 27.2082 29.8087 25.9044 30.6886 24.7467L30.9457 24.4016C31.2492 23.9909 31.4329 23.7426 31.9196 23.2554L32.7881 24.1244C32.3659 24.5465 32.2303 24.7297 31.9328 25.1328L31.6681 25.4883C30.8308 26.5902 30.0586 27.8316 29.3701 29.1813Z" fill="#F5F6F5"/>
<path d="M30.1043 37.7582L27.5804 38.8946L24.1045 35.4176L24.2948 34.9932L25.2404 32.8916C26.4074 33.1929 27.476 33.7764 28.3477 34.6493C28.6917 34.9932 28.993 35.3744 29.2446 35.7736C29.6372 36.3883 29.92 37.0517 30.1043 37.7582Z" fill="#E91C45"/>
<path d="M29.4893 36.5294L26.9654 37.6664L24.2939 34.9932L25.2395 32.8916C26.4065 33.1929 27.4751 33.7764 28.3468 34.6493C28.6908 34.9932 28.9921 35.3744 29.2437 35.7736C29.3421 36.0192 29.4214 36.2713 29.4893 36.5294Z" fill="#EE205C"/>
<path d="M25.5537 30.7886L23.6692 28.903L16.7217 31.51L23.235 23.2549H29.314L29.4398 23.3807C27.7029 25.6661 26.3527 28.4075 25.5537 30.7886Z" fill="#E91C45"/>
<path d="M39.7355 39.7643L31.4854 46.2814L34.0901 39.3301L32.2061 37.4444C34.5856 36.6449 37.3254 35.2936 39.6097 33.5562L39.7355 33.6819V39.7643Z" fill="#E91C45"/>
<path d="M40.6046 27.6021C39.1674 29.0398 36.8339 29.0398 35.3907 27.6021C35.2928 27.5036 35.2064 27.4057 35.1266 27.3013C33.9601 25.851 34.052 23.7253 35.3907 22.3854C36.613 21.1692 38.4674 20.9849 39.88 21.8265C40.1382 21.9736 40.3837 22.1645 40.6046 22.3854C42.0413 23.8231 42.0413 26.1583 40.6046 27.6021Z" fill="#52C6ED"/>
<path d="M39.6159 26.7418C38.4002 27.9646 36.5392 28.1489 35.1266 27.3013C33.9601 25.851 34.052 23.7253 35.3907 22.3854C36.613 21.1692 38.4674 20.9849 39.88 21.8265C41.0531 23.2763 40.9607 25.4025 39.6159 26.7418Z" fill="#5FCBE7"/>
<path d="M45.8611 24.1734L38.8174 17.1258C41.5873 16.3394 44.1051 16.2284 45.5051 16.2475C46.2478 16.2596 46.6842 16.3028 46.6842 16.3028C46.6842 16.3028 47.0588 19.934 45.8611 24.1734Z" fill="#E91C45"/>
<path d="M44.6329 22.9446L38.8174 17.1258C41.5873 16.3394 44.1051 16.2284 45.5051 16.2475C45.5297 17.6481 45.4187 20.167 44.6329 22.9446Z" fill="#EE205C"/>
<path d="M24.103 44.1094C22.6642 45.5487 16.2871 46.7163 16.2871 46.7163C16.2871 46.7163 17.453 40.3354 18.8924 38.8954C20.3312 37.4561 22.6642 37.4561 24.103 38.8954C25.5419 40.3354 25.5419 42.6694 24.103 44.1094Z" fill="#F14621"/>
<path d="M19.5723 43.4273C19.9671 42.0437 20.3734 40.9543 20.6595 40.6005C20.9422 40.3205 21.3075 40.2734 21.4973 40.2734C21.6876 40.2734 22.0534 40.3205 22.3668 40.6338C22.8453 41.1123 22.8453 41.8922 22.3668 42.3713C22.037 42.6359 20.9493 43.0357 19.5723 43.4273Z" fill="#F25A48"/>
<path d="M29.0291 18.607H27.8008V14.9199H29.0291V18.607Z" fill="#F68714"/>
<path d="M30.2571 17.3777H26.5723V16.1494H30.2571V17.3777Z" fill="#F68714"/>
<path d="M42.5388 48.0991H41.3105V44.4126H42.5388V48.0991Z" fill="#F68714"/>
<path d="M43.7679 46.8704H40.083V45.6416H43.7679V46.8704Z" fill="#F68714"/>
<path d="M21.0457 21.0648H19.8174V19.8359H21.0457V21.0648Z" fill="#F68714"/>
<path d="M46.8381 37.6541H45.6104V36.4253H46.8381V37.6541Z" fill="#F68714"/>
<path d="M17.3611 36.4251H16.1328V35.1963H17.3611V36.4251Z" fill="#F68714"/>
<path d="M28.4148 45.6414H27.1865V44.4126H28.4148V45.6414Z" fill="#F68714"/>
<path d="M41.0389 31.5099C40.5013 32.048 39.8959 32.5714 39.2391 33.0668C37.1938 34.6227 34.5601 36.0063 32.0105 36.8627C31.5238 37.0262 31.054 37.1662 30.6078 37.2794C30.2474 36.0998 29.6338 35.0711 28.7801 34.2164C27.9226 33.3583 26.8874 32.742 25.7187 32.3882C25.8325 31.9408 25.9725 31.4716 26.1365 30.9843C26.9913 28.4337 28.3743 25.7983 29.9313 23.7503C30.4251 23.0951 30.9479 22.4892 31.4861 21.951C33.3772 20.0589 35.7883 18.6742 38.6479 17.8216L45.1672 24.3436C44.3147 27.2043 42.9311 29.6171 41.0389 31.5099ZM32.8336 44.4336L34.6661 39.5451C34.7504 39.3203 34.6957 39.066 34.5251 38.8954L33.3252 37.695C35.3541 36.9239 37.3879 35.8614 39.1221 34.667V39.4669L32.8336 44.4336ZM27.7115 38.161L24.8383 35.2855L25.5754 33.6471C26.4674 33.9549 27.2565 34.4296 27.9122 35.0853C28.5636 35.7378 29.0372 36.5225 29.3489 37.4238L27.7115 38.161ZM23.4547 28.3276L18.5689 30.1607L23.5329 23.8695H28.3306C27.1357 25.6053 26.0742 27.6402 25.3042 29.6696L24.1038 28.4687C23.9343 28.2975 23.68 28.2434 23.4547 28.3276ZM46.1057 16.8815C46.1494 17.8861 46.1576 20.2442 45.5336 22.9732L40.0179 17.4546C42.7457 16.8296 45.1027 16.8378 46.1057 16.8815ZM46.7472 15.6915C46.5929 15.6757 42.9508 15.3196 38.6545 16.5332C35.4394 17.4328 32.7357 18.9629 30.6176 21.0821C30.144 21.5557 29.6885 22.085 29.2488 22.6407H23.2354C23.0478 22.6407 22.8706 22.7265 22.7536 22.8742L16.2397 31.1287C16.0686 31.3453 16.0631 31.6493 16.2255 31.8719C16.3436 32.0343 16.5296 32.124 16.7215 32.124C16.7937 32.124 16.867 32.1114 16.937 32.0852L23.5154 29.6171L24.8585 30.9614C24.666 31.5673 24.5008 32.1546 24.3854 32.6977C24.3526 32.8475 24.3838 33.0007 24.4598 33.1324L23.5438 35.1679C23.4393 35.4009 23.4897 35.6738 23.6701 35.8542L27.1433 39.3302C27.2609 39.4478 27.4179 39.5101 27.5776 39.5101C27.6629 39.5101 27.7487 39.4926 27.8291 39.456L29.8618 38.5405C29.9565 38.5957 30.062 38.628 30.1697 38.628C30.2129 38.628 30.2556 38.6236 30.2983 38.6138C30.8413 38.4984 31.4281 38.3332 32.034 38.1407L33.3772 39.4849L30.9108 46.0666C30.814 46.3242 30.9009 46.6156 31.1235 46.7781C31.2312 46.8574 31.3586 46.8962 31.4861 46.8962C31.6206 46.8962 31.7551 46.8519 31.8667 46.7644L40.1168 40.2467C40.264 40.1297 40.3504 39.952 40.3504 39.7644V33.7477C40.906 33.3074 41.4348 32.8514 41.9073 32.3789C44.0259 30.2592 45.5555 27.5538 46.4546 24.3382C47.6659 20.0386 47.311 16.3932 47.2951 16.24C47.2651 15.9507 47.0365 15.7221 46.7472 15.6915Z" fill="#100F0D"/>
<path d="M27.1943 31.0091L28.3351 31.4652C28.4943 31.0665 28.666 30.6613 28.8519 30.255L27.7357 29.7437C27.5411 30.1697 27.3606 30.5924 27.1943 31.0091Z" fill="#100F0D"/>
<path d="M30.9457 24.4016L30.6886 24.7467C29.8087 25.9044 28.9977 27.2082 28.2764 28.6235L29.3701 29.1813C30.0586 27.8316 30.8308 26.5902 31.6681 25.4883L31.9328 25.1328C32.2303 24.7297 32.3659 24.5465 32.7881 24.1244L31.9196 23.2554C31.4329 23.7426 31.2492 23.9909 30.9457 24.4016Z" fill="#100F0D"/>
<path d="M40.1708 27.1649C39.5906 27.7451 38.8195 28.065 37.9992 28.065C37.1794 28.065 36.4083 27.7451 35.8281 27.1649C35.2484 26.5846 34.9285 25.813 34.9285 24.9927C34.9285 24.1718 35.2484 23.4002 35.8281 22.82C36.4269 22.2211 37.2128 21.922 37.9992 21.922C38.785 21.922 39.572 22.2211 40.1708 22.82C41.3674 24.0182 41.3674 25.9672 40.1708 27.1649ZM41.0387 21.951C39.3625 20.2748 36.6358 20.2748 34.9596 21.951C34.1475 22.7636 33.7002 23.8437 33.7002 24.9927C33.7002 26.1417 34.1475 27.2218 34.9596 28.0333C35.7712 28.846 36.8507 29.2939 37.9992 29.2939C39.1476 29.2939 40.2271 28.846 41.0387 28.0333C42.7143 26.3571 42.7143 23.6282 41.0387 21.951Z" fill="#100F0D"/>
<path d="M23.6696 43.6745C22.829 44.5145 19.4832 45.4333 17.0655 45.9375C17.5692 43.5181 18.4874 40.1707 19.3268 39.3301C19.9251 38.7308 20.7115 38.4316 21.4974 38.4316C22.2838 38.4316 23.0707 38.7308 23.6696 39.3301C24.8661 40.5283 24.8661 42.4774 23.6696 43.6745ZM18.4584 38.4612C16.9277 39.9924 15.806 45.9331 15.683 46.6058C15.6464 46.8043 15.7103 47.0077 15.8525 47.1504C15.969 47.2669 16.1254 47.3309 16.2867 47.3309C16.3234 47.3309 16.3606 47.3276 16.3972 47.3205C17.0693 47.1975 23.0073 46.0747 24.5375 44.5435C26.2131 42.8673 26.2131 40.1384 24.5375 38.4612C22.8613 36.785 20.1346 36.7839 18.4584 38.4612Z" fill="#100F0D"/>
<path d="M21.9579 41.9101C21.8179 42.0058 21.3809 42.2131 20.4988 42.5035C20.793 41.6164 21.009 41.1691 21.1168 41.0143C21.2557 40.8979 21.4422 40.888 21.4979 40.888C21.5936 40.888 21.7769 40.9115 21.9333 41.0679C22.1635 41.2993 22.1717 41.6689 21.9579 41.9101ZM21.4979 39.6592C21.2699 39.6592 20.688 39.7084 20.2281 40.1639C20.2117 40.1793 20.1969 40.1962 20.1827 40.2143C19.7594 40.7365 19.2968 42.1584 18.9823 43.2587C18.9216 43.4725 18.9812 43.7039 19.1393 43.8619C19.2558 43.9789 19.4127 44.0418 19.5729 44.0418C19.6298 44.0418 19.6861 44.0336 19.7408 44.0183C20.8411 43.705 22.2565 43.2489 22.7514 42.8496C22.7689 42.836 22.7858 42.8212 22.8022 42.8054C23.5192 42.0862 23.5192 40.9175 22.8017 40.1989C22.3319 39.7292 21.7834 39.6592 21.4979 39.6592Z" fill="#100F0D"/>
<path d="M27.8005 14.9199V16.1493H26.5723V17.3776H27.8005V18.607H29.0288V17.3776H30.2571V16.1493H29.0288V14.9199H27.8005Z" fill="#100F0D"/>
<path d="M42.5396 44.4126H41.3113V45.6414H40.083V46.8703H41.3113V48.0991H42.5396V46.8703H43.7679V45.6414H42.5396V44.4126Z" fill="#100F0D"/>
<path d="M19.8174 19.8359V21.0648H21.0457V19.8359H19.8174Z" fill="#100F0D"/>
<path d="M45.6104 37.6541H46.8381V36.4253H45.6104V37.6541Z" fill="#100F0D"/>
<path d="M16.1328 35.1963V36.4251H17.3611V35.1963H16.1328Z" fill="#100F0D"/>
<path d="M27.1865 45.6414H28.4148V44.4126H27.1865V45.6414Z" fill="#100F0D"/>
</svg>
